%TF.GenerationSoftware,KiCad,Pcbnew,(5.1.9)-1*%
%TF.CreationDate,2021-10-25T11:11:09+02:00*%
%TF.ProjectId,ArduinoNtcThermostat,41726475-696e-46f4-9e74-63546865726d,rev?*%
%TF.SameCoordinates,Original*%
%TF.FileFunction,Copper,L1,Top*%
%TF.FilePolarity,Positive*%
%FSLAX46Y46*%
G04 Gerber Fmt 4.6, Leading zero omitted, Abs format (unit mm)*
G04 Created by KiCad (PCBNEW (5.1.9)-1) date 2021-10-25 11:11:09*
%MOMM*%
%LPD*%
G01*
G04 APERTURE LIST*
%TA.AperFunction,ComponentPad*%
%ADD10C,2.500000*%
%TD*%
%TA.AperFunction,ComponentPad*%
%ADD11C,3.000000*%
%TD*%
%TA.AperFunction,ComponentPad*%
%ADD12R,1.600000X1.600000*%
%TD*%
%TA.AperFunction,ComponentPad*%
%ADD13O,1.600000X1.600000*%
%TD*%
%TA.AperFunction,ComponentPad*%
%ADD14O,2.200000X2.200000*%
%TD*%
%TA.AperFunction,ComponentPad*%
%ADD15R,2.200000X2.200000*%
%TD*%
%TA.AperFunction,ComponentPad*%
%ADD16R,1.800000X1.800000*%
%TD*%
%TA.AperFunction,ComponentPad*%
%ADD17C,1.800000*%
%TD*%
%TA.AperFunction,ComponentPad*%
%ADD18R,2.500000X2.500000*%
%TD*%
%TA.AperFunction,ComponentPad*%
%ADD19C,2.300000*%
%TD*%
%TA.AperFunction,ComponentPad*%
%ADD20R,1.700000X1.700000*%
%TD*%
%TA.AperFunction,ComponentPad*%
%ADD21O,1.700000X1.700000*%
%TD*%
%TA.AperFunction,ComponentPad*%
%ADD22O,1.050000X1.500000*%
%TD*%
%TA.AperFunction,ComponentPad*%
%ADD23R,1.050000X1.500000*%
%TD*%
%TA.AperFunction,ComponentPad*%
%ADD24C,1.600000*%
%TD*%
%TA.AperFunction,ComponentPad*%
%ADD25R,2.500000X1.500000*%
%TD*%
%TA.AperFunction,ComponentPad*%
%ADD26O,2.500000X1.500000*%
%TD*%
%TA.AperFunction,ComponentPad*%
%ADD27R,2.000000X2.000000*%
%TD*%
%TA.AperFunction,ComponentPad*%
%ADD28C,2.000000*%
%TD*%
%TA.AperFunction,Conductor*%
%ADD29C,0.500000*%
%TD*%
%TA.AperFunction,Conductor*%
%ADD30C,0.250000*%
%TD*%
%TA.AperFunction,Conductor*%
%ADD31C,2.000000*%
%TD*%
%TA.AperFunction,Conductor*%
%ADD32C,1.000000*%
%TD*%
%TA.AperFunction,Conductor*%
%ADD33C,3.000000*%
%TD*%
G04 APERTURE END LIST*
D10*
%TO.P,K1,2*%
%TO.N,Net-(D1-Pad2)*%
X118293600Y-75865000D03*
D11*
%TO.P,K1,3*%
%TO.N,Net-(J1-Pad1)*%
X106093600Y-75865000D03*
%TO.P,K1,4*%
%TO.N,Net-(J1-Pad3)*%
X106043600Y-87915000D03*
D10*
%TO.P,K1,5*%
%TO.N,+5V*%
X118293600Y-87865000D03*
D11*
%TO.P,K1,1*%
%TO.N,Net-(J1-Pad2)*%
X120243600Y-81915000D03*
%TD*%
D12*
%TO.P,A1,1*%
%TO.N,Net-(A1-Pad1)*%
X141643100Y-83451700D03*
D13*
%TO.P,A1,17*%
%TO.N,Net-(A1-Pad17)*%
X126403100Y-50431700D03*
%TO.P,A1,2*%
%TO.N,Net-(A1-Pad2)*%
X141643100Y-80911700D03*
%TO.P,A1,18*%
%TO.N,Net-(A1-Pad18)*%
X126403100Y-52971700D03*
%TO.P,A1,3*%
%TO.N,Net-(A1-Pad3)*%
X141643100Y-78371700D03*
%TO.P,A1,19*%
%TO.N,Net-(A1-Pad19)*%
X126403100Y-55511700D03*
%TO.P,A1,4*%
%TO.N,GND*%
X141643100Y-75831700D03*
%TO.P,A1,20*%
%TO.N,Net-(A1-Pad20)*%
X126403100Y-58051700D03*
%TO.P,A1,5*%
%TO.N,Net-(A1-Pad5)*%
X141643100Y-73291700D03*
%TO.P,A1,21*%
%TO.N,Net-(A1-Pad21)*%
X126403100Y-60591700D03*
%TO.P,A1,6*%
%TO.N,Net-(A1-Pad6)*%
X141643100Y-70751700D03*
%TO.P,A1,22*%
%TO.N,Net-(A1-Pad22)*%
X126403100Y-63131700D03*
%TO.P,A1,7*%
%TO.N,Net-(A1-Pad7)*%
X141643100Y-68211700D03*
%TO.P,A1,23*%
%TO.N,Net-(A1-Pad23)*%
X126403100Y-65671700D03*
%TO.P,A1,8*%
%TO.N,Net-(A1-Pad8)*%
X141643100Y-65671700D03*
%TO.P,A1,24*%
%TO.N,Net-(A1-Pad24)*%
X126403100Y-68211700D03*
%TO.P,A1,9*%
%TO.N,Net-(A1-Pad9)*%
X141643100Y-63131700D03*
%TO.P,A1,25*%
%TO.N,Net-(A1-Pad25)*%
X126403100Y-70751700D03*
%TO.P,A1,10*%
%TO.N,Net-(A1-Pad10)*%
X141643100Y-60591700D03*
%TO.P,A1,26*%
%TO.N,Net-(A1-Pad26)*%
X126403100Y-73291700D03*
%TO.P,A1,11*%
%TO.N,Net-(A1-Pad11)*%
X141643100Y-58051700D03*
%TO.P,A1,27*%
%TO.N,+5V*%
X126403100Y-75831700D03*
%TO.P,A1,12*%
%TO.N,Net-(A1-Pad12)*%
X141643100Y-55511700D03*
%TO.P,A1,28*%
%TO.N,Net-(A1-Pad28)*%
X126403100Y-78371700D03*
%TO.P,A1,13*%
%TO.N,Net-(A1-Pad13)*%
X141643100Y-52971700D03*
%TO.P,A1,29*%
%TO.N,GND*%
X126403100Y-80911700D03*
%TO.P,A1,14*%
%TO.N,Net-(A1-Pad14)*%
X141643100Y-50431700D03*
%TO.P,A1,30*%
%TO.N,Net-(A1-Pad30)*%
X126403100Y-83451700D03*
%TO.P,A1,15*%
%TO.N,Net-(A1-Pad15)*%
X141643100Y-47891700D03*
%TO.P,A1,16*%
%TO.N,Net-(A1-Pad16)*%
X126403100Y-47891700D03*
%TD*%
D14*
%TO.P,D1,2*%
%TO.N,Net-(D1-Pad2)*%
X112191800Y-67945000D03*
D15*
%TO.P,D1,1*%
%TO.N,+5V*%
X122351800Y-67945000D03*
%TD*%
D16*
%TO.P,D2,1*%
%TO.N,Net-(D2-Pad1)*%
X146075400Y-43992800D03*
D17*
%TO.P,D2,2*%
%TO.N,Net-(A1-Pad15)*%
X148615400Y-43992800D03*
%TD*%
%TO.P,D3,2*%
%TO.N,Net-(D3-Pad2)*%
X114427000Y-45847000D03*
D16*
%TO.P,D3,1*%
%TO.N,GND*%
X116967000Y-45847000D03*
%TD*%
D15*
%TO.P,D4,1*%
%TO.N,Net-(C1-Pad1)*%
X113588800Y-71501000D03*
D14*
%TO.P,D4,2*%
%TO.N,Net-(D4-Pad2)*%
X103428800Y-71501000D03*
%TD*%
D18*
%TO.P,J1,1*%
%TO.N,Net-(J1-Pad1)*%
X96189800Y-72313800D03*
D10*
%TO.P,J1,2*%
%TO.N,Net-(J1-Pad2)*%
X96189800Y-77393800D03*
%TO.P,J1,3*%
%TO.N,Net-(J1-Pad3)*%
X96189800Y-82473800D03*
%TD*%
D19*
%TO.P,J2,2*%
%TO.N,GND*%
X96189800Y-55194200D03*
D15*
%TO.P,J2,1*%
%TO.N,Net-(D4-Pad2)*%
X96189800Y-50114200D03*
%TD*%
%TO.P,J3,1*%
%TO.N,Net-(A1-Pad19)*%
X96240600Y-61137800D03*
D19*
%TO.P,J3,2*%
%TO.N,GND*%
X96240600Y-66217800D03*
%TD*%
D20*
%TO.P,JP1,1*%
%TO.N,GND*%
X121488200Y-47117000D03*
D21*
%TO.P,JP1,2*%
%TO.N,Net-(A1-Pad16)*%
X121488200Y-44577000D03*
%TD*%
D22*
%TO.P,Q1,2*%
%TO.N,Net-(Q1-Pad2)*%
X147218400Y-88112600D03*
%TO.P,Q1,3*%
%TO.N,GND*%
X148488400Y-88112600D03*
D23*
%TO.P,Q1,1*%
%TO.N,Net-(D1-Pad2)*%
X145948400Y-88112600D03*
%TD*%
D24*
%TO.P,R1,1*%
%TO.N,Net-(R1-Pad1)*%
X112395000Y-62509400D03*
D13*
%TO.P,R1,2*%
%TO.N,+5V*%
X122555000Y-62509400D03*
%TD*%
D24*
%TO.P,R2,1*%
%TO.N,Net-(D2-Pad1)*%
X112458500Y-59004200D03*
D13*
%TO.P,R2,2*%
%TO.N,Net-(R2-Pad2)*%
X122618500Y-59004200D03*
%TD*%
%TO.P,R3,2*%
%TO.N,+5V*%
X112395000Y-55511700D03*
D24*
%TO.P,R3,1*%
%TO.N,Net-(A1-Pad19)*%
X122555000Y-55511700D03*
%TD*%
D13*
%TO.P,R4,2*%
%TO.N,Net-(C1-Pad1)*%
X112395000Y-51943000D03*
D24*
%TO.P,R4,1*%
%TO.N,Net-(D3-Pad2)*%
X122555000Y-51943000D03*
%TD*%
D12*
%TO.P,U1,1*%
%TO.N,Net-(R2-Pad2)*%
X153289000Y-81407000D03*
D13*
%TO.P,U1,3*%
%TO.N,Net-(Q1-Pad2)*%
X145669000Y-78867000D03*
%TO.P,U1,2*%
%TO.N,GND*%
X153289000Y-78867000D03*
%TO.P,U1,4*%
%TO.N,Net-(R1-Pad1)*%
X145669000Y-81407000D03*
%TD*%
D25*
%TO.P,U2,1*%
%TO.N,Net-(C1-Pad1)*%
X107823000Y-65963800D03*
D26*
%TO.P,U2,2*%
%TO.N,GND*%
X107823000Y-63423800D03*
%TO.P,U2,3*%
%TO.N,+5V*%
X107823000Y-60883800D03*
%TD*%
D27*
%TO.P,C2,1*%
%TO.N,Net-(C1-Pad1)*%
X108788200Y-47066200D03*
D28*
%TO.P,C2,2*%
%TO.N,GND*%
X103788200Y-47066200D03*
%TD*%
D12*
%TO.P,SW1,1*%
%TO.N,GND*%
X153390600Y-73291700D03*
D24*
%TO.P,SW1,2*%
X153390600Y-70751700D03*
%TO.P,SW1,3*%
X153390600Y-68211700D03*
%TO.P,SW1,4*%
X153390600Y-65671700D03*
%TO.P,SW1,5*%
X153390600Y-63131700D03*
%TO.P,SW1,6*%
X153390600Y-60591700D03*
%TO.P,SW1,7*%
X153390600Y-58051700D03*
%TO.P,SW1,14*%
%TO.N,Net-(A1-Pad11)*%
X145770600Y-58051700D03*
%TO.P,SW1,15*%
%TO.N,Net-(A1-Pad10)*%
X145770600Y-60591700D03*
%TO.P,SW1,16*%
%TO.N,Net-(A1-Pad9)*%
X145770600Y-63131700D03*
%TO.P,SW1,17*%
%TO.N,Net-(A1-Pad8)*%
X145770600Y-65671700D03*
%TO.P,SW1,18*%
%TO.N,Net-(A1-Pad7)*%
X145770600Y-68211700D03*
%TO.P,SW1,19*%
%TO.N,Net-(A1-Pad6)*%
X145770600Y-70751700D03*
%TO.P,SW1,20*%
%TO.N,Net-(A1-Pad5)*%
X145770600Y-73291700D03*
%TO.P,SW1,8*%
%TO.N,GND*%
X153390600Y-55511700D03*
%TO.P,SW1,13*%
%TO.N,Net-(A1-Pad12)*%
X145770600Y-55511700D03*
%TO.P,SW1,9*%
%TO.N,GND*%
X153390600Y-52971700D03*
%TO.P,SW1,12*%
%TO.N,Net-(A1-Pad13)*%
X145770600Y-52971700D03*
%TO.P,SW1,10*%
%TO.N,GND*%
X153390600Y-50431700D03*
%TO.P,SW1,11*%
%TO.N,Net-(A1-Pad14)*%
X145770600Y-50431700D03*
%TD*%
%TO.P,C1,1*%
%TO.N,Net-(C1-Pad1)*%
X109143800Y-55499000D03*
%TO.P,C1,2*%
%TO.N,GND*%
X104143800Y-55499000D03*
%TD*%
D20*
%TO.P,J4,1*%
%TO.N,GND*%
X129870200Y-89839800D03*
D21*
%TO.P,J4,2*%
%TO.N,+5V*%
X132410200Y-89839800D03*
%TO.P,J4,3*%
%TO.N,Net-(A1-Pad24)*%
X134950200Y-89839800D03*
%TO.P,J4,4*%
%TO.N,Net-(A1-Pad23)*%
X137490200Y-89839800D03*
%TD*%
D29*
%TO.N,Net-(A1-Pad19)*%
X126403100Y-55511700D02*
X122555000Y-55511700D01*
%TO.N,GND*%
X153390600Y-73291700D02*
X153390600Y-70751700D01*
X153390600Y-68211700D02*
X153390600Y-65671700D01*
X153390600Y-63131700D02*
X153390600Y-60591700D01*
X153390600Y-58051700D02*
X153390600Y-55511700D01*
X153390600Y-52971700D02*
X153390600Y-50431700D01*
X153390600Y-70751700D02*
X153390600Y-68211700D01*
X153390600Y-65671700D02*
X153390600Y-63131700D01*
X153390600Y-60591700D02*
X153390600Y-58051700D01*
X153390600Y-55511700D02*
X153390600Y-52971700D01*
X153390600Y-78765400D02*
X153289000Y-78867000D01*
X153390600Y-73291700D02*
X153390600Y-78765400D01*
X153289000Y-78867000D02*
X154889200Y-78867000D01*
X154889200Y-78867000D02*
X155321000Y-79298800D01*
X155321000Y-79298800D02*
X155321000Y-82727800D01*
X155321000Y-82727800D02*
X153873200Y-84175600D01*
X152425400Y-84175600D02*
X148488400Y-88112600D01*
X153873200Y-84175600D02*
X152425400Y-84175600D01*
X121488200Y-47117000D02*
X118414800Y-47117000D01*
X117144800Y-45847000D02*
X116967000Y-45847000D01*
X118414800Y-47117000D02*
X117144800Y-45847000D01*
X96240600Y-66217800D02*
X93675200Y-63652400D01*
X93675200Y-63652400D02*
X93675200Y-57734200D01*
X96189800Y-55219600D02*
X96189800Y-55194200D01*
X93675200Y-57734200D02*
X96189800Y-55219600D01*
X116967000Y-45847000D02*
X116967000Y-45313600D01*
X116967000Y-45313600D02*
X114833400Y-43180000D01*
X107674400Y-43180000D02*
X103788200Y-47066200D01*
X114833400Y-43180000D02*
X107674400Y-43180000D01*
X103788200Y-47066200D02*
X103788200Y-52726600D01*
X103788200Y-52726600D02*
X103962200Y-52900600D01*
X103962200Y-55317400D02*
X104143800Y-55499000D01*
X103962200Y-52900600D02*
X103962200Y-55317400D01*
X104143800Y-55499000D02*
X99669600Y-55499000D01*
X99669600Y-55499000D02*
X99339400Y-55168800D01*
X96215200Y-55168800D02*
X96189800Y-55194200D01*
X99339400Y-55168800D02*
X96215200Y-55168800D01*
X104143800Y-55499000D02*
X104143800Y-60854600D01*
X106713000Y-63423800D02*
X107823000Y-63423800D01*
X104143800Y-60854600D02*
X106713000Y-63423800D01*
X153390600Y-73291700D02*
X151320500Y-73291700D01*
X151320500Y-73291700D02*
X148894800Y-75717400D01*
X141757400Y-75717400D02*
X141643100Y-75831700D01*
X148894800Y-75717400D02*
X141757400Y-75717400D01*
%TO.N,Net-(A1-Pad5)*%
X145770600Y-73291700D02*
X141643100Y-73291700D01*
%TO.N,Net-(A1-Pad6)*%
X145770600Y-70751700D02*
X141643100Y-70751700D01*
%TO.N,Net-(A1-Pad7)*%
X145770600Y-68211700D02*
X141643100Y-68211700D01*
D30*
%TO.N,Net-(A1-Pad23)*%
X137490200Y-89839800D02*
X137490200Y-79121000D01*
X137490200Y-79121000D02*
X137490200Y-78943200D01*
X137490200Y-79121000D02*
X137490200Y-78384400D01*
X137490200Y-78384400D02*
X128320800Y-69215000D01*
X128320800Y-69215000D02*
X128320800Y-66522600D01*
X127469900Y-65671700D02*
X126403100Y-65671700D01*
X128320800Y-66522600D02*
X127469900Y-65671700D01*
D29*
%TO.N,Net-(A1-Pad8)*%
X145770600Y-65671700D02*
X141643100Y-65671700D01*
D30*
%TO.N,Net-(A1-Pad24)*%
X126403100Y-68211700D02*
X127431800Y-69240400D01*
X127431800Y-69240400D02*
X127431800Y-69824600D01*
X134950200Y-77343000D02*
X134950200Y-89839800D01*
X127431800Y-69824600D02*
X134950200Y-77343000D01*
D29*
%TO.N,Net-(A1-Pad9)*%
X145770600Y-63131700D02*
X141643100Y-63131700D01*
%TO.N,Net-(A1-Pad10)*%
X145770600Y-60591700D02*
X141643100Y-60591700D01*
%TO.N,Net-(A1-Pad11)*%
X145770600Y-58051700D02*
X141643100Y-58051700D01*
%TO.N,Net-(A1-Pad12)*%
X145770600Y-55511700D02*
X141643100Y-55511700D01*
%TO.N,Net-(A1-Pad13)*%
X145770600Y-52971700D02*
X141643100Y-52971700D01*
%TO.N,Net-(A1-Pad14)*%
X145770600Y-50431700D02*
X141643100Y-50431700D01*
%TO.N,Net-(A1-Pad15)*%
X146799300Y-47891700D02*
X141643100Y-47891700D01*
X148615400Y-46075600D02*
X146799300Y-47891700D01*
X148615400Y-43992800D02*
X148615400Y-46075600D01*
%TO.N,Net-(A1-Pad16)*%
X121488200Y-44577000D02*
X122707400Y-44577000D01*
X122707400Y-44577000D02*
X123825000Y-45694600D01*
X123825000Y-45694600D02*
X123825000Y-47040800D01*
X124675900Y-47891700D02*
X126403100Y-47891700D01*
X123825000Y-47040800D02*
X124675900Y-47891700D01*
%TO.N,+5V*%
X118293600Y-87865000D02*
X122682000Y-83476600D01*
X122682000Y-83476600D02*
X122682000Y-79933800D01*
X122682000Y-79933800D02*
X121539000Y-78790800D01*
X119888000Y-78790800D02*
X119837200Y-78841600D01*
X121539000Y-78790800D02*
X119888000Y-78790800D01*
X119837200Y-78841600D02*
X117094000Y-78841600D01*
X117094000Y-78841600D02*
X115392200Y-77139800D01*
X115392200Y-77139800D02*
X115392200Y-75082400D01*
X115392200Y-75082400D02*
X118287800Y-72186800D01*
X118287800Y-72009000D02*
X122351800Y-67945000D01*
X118287800Y-72186800D02*
X118287800Y-72009000D01*
X132410200Y-89839800D02*
X132410200Y-88417400D01*
X132410200Y-88417400D02*
X131953000Y-87960200D01*
X118388800Y-87960200D02*
X118293600Y-87865000D01*
X131953000Y-87960200D02*
X118388800Y-87960200D01*
D30*
%TO.N,Net-(D2-Pad1)*%
X146075400Y-43992800D02*
X131597400Y-43992800D01*
X131597400Y-43992800D02*
X129844800Y-45745400D01*
X129844800Y-45745400D02*
X129844800Y-47167800D01*
X127995899Y-49016701D02*
X125760699Y-49016701D01*
X129844800Y-47167800D02*
X127995899Y-49016701D01*
X125760699Y-49016701D02*
X124739400Y-50038000D01*
X124739400Y-50038000D02*
X124739400Y-52781200D01*
X124739400Y-52781200D02*
X123774200Y-53746400D01*
X123774200Y-53746400D02*
X117881400Y-53746400D01*
X112623600Y-59004200D02*
X112458500Y-59004200D01*
X117881400Y-53746400D02*
X112623600Y-59004200D01*
D29*
%TO.N,Net-(D3-Pad2)*%
X122555000Y-51943000D02*
X118338600Y-51943000D01*
X118338600Y-51943000D02*
X114528600Y-48133000D01*
X114528600Y-45948600D02*
X114427000Y-45847000D01*
X114528600Y-48133000D02*
X114528600Y-45948600D01*
%TO.N,Net-(C1-Pad1)*%
X109143800Y-55499000D02*
X109143800Y-54965600D01*
X112166400Y-51943000D02*
X112395000Y-51943000D01*
X109143800Y-54965600D02*
X112166400Y-51943000D01*
X112395000Y-51943000D02*
X109093000Y-48641000D01*
X109093000Y-47371000D02*
X108788200Y-47066200D01*
X109093000Y-48641000D02*
X109093000Y-47371000D01*
X113588800Y-71501000D02*
X111201200Y-71501000D01*
X111201200Y-71501000D02*
X107950000Y-68249800D01*
X107950000Y-66090800D02*
X107823000Y-65963800D01*
X107950000Y-68249800D02*
X107950000Y-66090800D01*
%TO.N,Net-(D4-Pad2)*%
X103428800Y-71501000D02*
X101092000Y-69164200D01*
X101092000Y-69164200D02*
X94462600Y-69164200D01*
X94462600Y-69164200D02*
X92024200Y-66725800D01*
X92024200Y-66725800D02*
X92024200Y-54152800D01*
X96062800Y-50114200D02*
X96189800Y-50114200D01*
X92024200Y-54152800D02*
X96062800Y-50114200D01*
D31*
%TO.N,Net-(J1-Pad1)*%
X106093600Y-75865000D02*
X100706200Y-75865000D01*
D32*
X97155000Y-72313800D02*
X96189800Y-72313800D01*
D31*
X100706200Y-75865000D02*
X97155000Y-72313800D01*
D33*
%TO.N,Net-(J1-Pad2)*%
X120243600Y-81915000D02*
X106857800Y-81915000D01*
X106857800Y-81915000D02*
X104419400Y-79476600D01*
X98272600Y-79476600D02*
X96189800Y-77393800D01*
X104419400Y-79476600D02*
X98272600Y-79476600D01*
D32*
%TO.N,Net-(J1-Pad3)*%
X96545400Y-82118200D02*
X96189800Y-82473800D01*
D31*
X106043600Y-87915000D02*
X102215200Y-87915000D01*
D32*
X96774000Y-82473800D02*
X96189800Y-82473800D01*
D31*
X102215200Y-87915000D02*
X96774000Y-82473800D01*
D29*
%TO.N,Net-(Q1-Pad2)*%
X147218400Y-88112600D02*
X147218400Y-85344000D01*
X147218400Y-85344000D02*
X147929600Y-84632800D01*
X147929600Y-84632800D02*
X147929600Y-80213200D01*
X146583400Y-78867000D02*
X145669000Y-78867000D01*
X147929600Y-80213200D02*
X146583400Y-78867000D01*
D30*
%TO.N,Net-(R1-Pad1)*%
X112674400Y-62788800D02*
X112395000Y-62509400D01*
X112674400Y-63601600D02*
X112674400Y-62788800D01*
X127767299Y-64546699D02*
X113619499Y-64546699D01*
X129286000Y-66065400D02*
X127767299Y-64546699D01*
X129286000Y-69062600D02*
X129286000Y-66065400D01*
X140010099Y-79786699D02*
X129286000Y-69062600D01*
X113619499Y-64546699D02*
X112674400Y-63601600D01*
X144048699Y-79786699D02*
X140010099Y-79786699D01*
X145669000Y-81407000D02*
X144048699Y-79786699D01*
%TO.N,Net-(R2-Pad2)*%
X153289000Y-81407000D02*
X151968200Y-81407000D01*
X147517901Y-76956701D02*
X139516901Y-76956701D01*
X151968200Y-81407000D02*
X147517901Y-76956701D01*
X136042400Y-73482200D02*
X136042400Y-73431400D01*
X139516901Y-76956701D02*
X136042400Y-73482200D01*
X136042400Y-73431400D02*
X130175000Y-67564000D01*
X130175000Y-67564000D02*
X130175000Y-63881000D01*
X128010701Y-61716701D02*
X124683301Y-61716701D01*
X130175000Y-63881000D02*
X128010701Y-61716701D01*
X122618500Y-59651900D02*
X122618500Y-59004200D01*
X124683301Y-61716701D02*
X122618500Y-59651900D01*
%TD*%
M02*
