%TF.GenerationSoftware,KiCad,Pcbnew,(5.1.9)-1*%
%TF.CreationDate,2021-10-25T11:11:09+02:00*%
%TF.ProjectId,ArduinoNtcThermostat,41726475-696e-46f4-9e74-63546865726d,rev?*%
%TF.SameCoordinates,Original*%
%TF.FileFunction,Soldermask,Bot*%
%TF.FilePolarity,Negative*%
%FSLAX46Y46*%
G04 Gerber Fmt 4.6, Leading zero omitted, Abs format (unit mm)*
G04 Created by KiCad (PCBNEW (5.1.9)-1) date 2021-10-25 11:11:09*
%MOMM*%
%LPD*%
G01*
G04 APERTURE LIST*
%ADD10C,2.500000*%
%ADD11C,3.000000*%
%ADD12C,3.200000*%
%ADD13R,1.600000X1.600000*%
%ADD14O,1.600000X1.600000*%
%ADD15C,1.780000*%
%ADD16O,2.200000X2.200000*%
%ADD17R,2.200000X2.200000*%
%ADD18R,1.800000X1.800000*%
%ADD19C,1.800000*%
%ADD20R,2.500000X2.500000*%
%ADD21C,2.300000*%
%ADD22R,1.700000X1.700000*%
%ADD23O,1.700000X1.700000*%
%ADD24O,1.050000X1.500000*%
%ADD25R,1.050000X1.500000*%
%ADD26C,1.600000*%
%ADD27R,2.500000X1.500000*%
%ADD28O,2.500000X1.500000*%
%ADD29R,2.000000X2.000000*%
%ADD30C,2.000000*%
G04 APERTURE END LIST*
D10*
%TO.C,K1*%
X118293600Y-75865000D03*
D11*
X106093600Y-75865000D03*
X106043600Y-87915000D03*
D10*
X118293600Y-87865000D03*
D11*
X120243600Y-81915000D03*
%TD*%
D12*
%TO.C,REF\u002A\u002A*%
X154355800Y-43637200D03*
%TD*%
%TO.C,REF\u002A\u002A*%
X154559000Y-88468200D03*
%TD*%
%TO.C,REF\u002A\u002A*%
X95224600Y-43459400D03*
%TD*%
%TO.C,REF\u002A\u002A*%
X96012000Y-88265000D03*
%TD*%
D13*
%TO.C,A1*%
X141643100Y-83451700D03*
D14*
X126403100Y-50431700D03*
X141643100Y-80911700D03*
X126403100Y-52971700D03*
X141643100Y-78371700D03*
X126403100Y-55511700D03*
X141643100Y-75831700D03*
X126403100Y-58051700D03*
X141643100Y-73291700D03*
X126403100Y-60591700D03*
X141643100Y-70751700D03*
X126403100Y-63131700D03*
X141643100Y-68211700D03*
X126403100Y-65671700D03*
X141643100Y-65671700D03*
X126403100Y-68211700D03*
X141643100Y-63131700D03*
X126403100Y-70751700D03*
X141643100Y-60591700D03*
X126403100Y-73291700D03*
X141643100Y-58051700D03*
X126403100Y-75831700D03*
X141643100Y-55511700D03*
X126403100Y-78371700D03*
X141643100Y-52971700D03*
X126403100Y-80911700D03*
X141643100Y-50431700D03*
X126403100Y-83451700D03*
X141643100Y-47891700D03*
X126403100Y-47891700D03*
D15*
X141643100Y-85991700D03*
X126403100Y-85991700D03*
X126403100Y-45351700D03*
X141643100Y-45351700D03*
%TD*%
D16*
%TO.C,D1*%
X112191800Y-67945000D03*
D17*
X122351800Y-67945000D03*
%TD*%
D18*
%TO.C,D2*%
X146075400Y-43992800D03*
D19*
X148615400Y-43992800D03*
%TD*%
%TO.C,D3*%
X114427000Y-45847000D03*
D18*
X116967000Y-45847000D03*
%TD*%
D17*
%TO.C,D4*%
X113588800Y-71501000D03*
D16*
X103428800Y-71501000D03*
%TD*%
D20*
%TO.C,J1*%
X96189800Y-72313800D03*
D10*
X96189800Y-77393800D03*
X96189800Y-82473800D03*
%TD*%
D21*
%TO.C,J2*%
X96189800Y-55194200D03*
D17*
X96189800Y-50114200D03*
%TD*%
%TO.C,J3*%
X96240600Y-61137800D03*
D21*
X96240600Y-66217800D03*
%TD*%
D22*
%TO.C,JP1*%
X121488200Y-47117000D03*
D23*
X121488200Y-44577000D03*
%TD*%
D24*
%TO.C,Q1*%
X147218400Y-88112600D03*
X148488400Y-88112600D03*
D25*
X145948400Y-88112600D03*
%TD*%
D26*
%TO.C,R1*%
X112395000Y-62509400D03*
D14*
X122555000Y-62509400D03*
%TD*%
D26*
%TO.C,R2*%
X112458500Y-59004200D03*
D14*
X122618500Y-59004200D03*
%TD*%
%TO.C,R3*%
X112395000Y-55511700D03*
D26*
X122555000Y-55511700D03*
%TD*%
D14*
%TO.C,R4*%
X112395000Y-51943000D03*
D26*
X122555000Y-51943000D03*
%TD*%
D13*
%TO.C,U1*%
X153289000Y-81407000D03*
D14*
X145669000Y-78867000D03*
X153289000Y-78867000D03*
X145669000Y-81407000D03*
%TD*%
D27*
%TO.C,U2*%
X107823000Y-65963800D03*
D28*
X107823000Y-63423800D03*
X107823000Y-60883800D03*
%TD*%
D29*
%TO.C,C2*%
X108788200Y-47066200D03*
D30*
X103788200Y-47066200D03*
%TD*%
D13*
%TO.C,SW1*%
X153390600Y-73291700D03*
D26*
X153390600Y-70751700D03*
X153390600Y-68211700D03*
X153390600Y-65671700D03*
X153390600Y-63131700D03*
X153390600Y-60591700D03*
X153390600Y-58051700D03*
X145770600Y-58051700D03*
X145770600Y-60591700D03*
X145770600Y-63131700D03*
X145770600Y-65671700D03*
X145770600Y-68211700D03*
X145770600Y-70751700D03*
X145770600Y-73291700D03*
X153390600Y-55511700D03*
X145770600Y-55511700D03*
X153390600Y-52971700D03*
X145770600Y-52971700D03*
X153390600Y-50431700D03*
X145770600Y-50431700D03*
%TD*%
%TO.C,C1*%
X109143800Y-55499000D03*
X104143800Y-55499000D03*
%TD*%
D22*
%TO.C,J4*%
X129870200Y-89839800D03*
D23*
X132410200Y-89839800D03*
X134950200Y-89839800D03*
X137490200Y-89839800D03*
%TD*%
M02*
