M48
; DRILL file {KiCad (5.1.9)-1} date 10/25/21 11:10:58
; FORMAT={-:-/ absolute / metric / decimal}
; #@! TF.CreationDate,2021-10-25T11:10:58+02:00
; #@! TF.GenerationSoftware,Kicad,Pcbnew,(5.1.9)-1
; #@! TF.FileFunction,Plated,1,2,PTH
FMAT,2
METRIC
T1C0.750
T2C0.800
T3C0.900
T4C1.000
T5C1.100
T6C1.300
%
G90
G05
T1
X145.948Y-88.113
X147.218Y-88.113
X148.488Y-88.113
T2
X104.144Y-55.499
X109.144Y-55.499
X112.395Y-51.943
X112.395Y-55.512
X112.395Y-62.509
X112.459Y-59.004
X122.555Y-51.943
X122.555Y-55.512
X122.555Y-62.509
X122.618Y-59.004
X145.669Y-78.867
X145.669Y-81.407
X153.289Y-78.867
X153.289Y-81.407
T3
X114.427Y-45.847
X116.967Y-45.847
X146.075Y-43.993
X148.615Y-43.993
T4
X103.788Y-47.066
X107.823Y-60.884
X107.823Y-63.424
X107.823Y-65.964
X108.788Y-47.066
X118.294Y-75.865
X118.294Y-87.865
X121.488Y-44.577
X121.488Y-47.117
X126.403Y-47.892
X126.403Y-50.432
X126.403Y-52.972
X126.403Y-55.512
X126.403Y-58.052
X126.403Y-60.592
X126.403Y-63.132
X126.403Y-65.672
X126.403Y-68.212
X126.403Y-70.752
X126.403Y-73.292
X126.403Y-75.832
X126.403Y-78.372
X126.403Y-80.912
X126.403Y-83.452
X129.87Y-89.84
X132.41Y-89.84
X134.95Y-89.84
X137.49Y-89.84
X141.643Y-47.892
X141.643Y-50.432
X141.643Y-52.972
X141.643Y-55.512
X141.643Y-58.052
X141.643Y-60.592
X141.643Y-63.132
X141.643Y-65.672
X141.643Y-68.212
X141.643Y-70.752
X141.643Y-73.292
X141.643Y-75.832
X141.643Y-78.372
X141.643Y-80.912
X141.643Y-83.452
X145.771Y-50.432
X145.771Y-52.972
X145.771Y-55.512
X145.771Y-58.052
X145.771Y-60.592
X145.771Y-63.132
X145.771Y-65.672
X145.771Y-68.212
X145.771Y-70.752
X145.771Y-73.292
X153.391Y-50.432
X153.391Y-52.972
X153.391Y-55.512
X153.391Y-58.052
X153.391Y-60.592
X153.391Y-63.132
X153.391Y-65.672
X153.391Y-68.212
X153.391Y-70.752
X153.391Y-73.292
T5
X103.429Y-71.501
X112.192Y-67.945
X113.589Y-71.501
X122.352Y-67.945
T6
X96.19Y-50.114
X96.19Y-55.194
X96.19Y-72.314
X96.19Y-77.394
X96.19Y-82.474
X96.241Y-61.138
X96.241Y-66.218
X106.044Y-87.915
X106.094Y-75.865
X120.244Y-81.915
T0
M30
